<svg width="1424" height="256" viewBox="0 0 1424 256" fill="none" xmlns="http://www.w3.org/2000/svg">
<rect y="14" width="46" height="215" rx="8" fill="#385B93"/>
<rect x="443" y="14" width="46" height="215" rx="8" fill="#385B93"/>
<rect x="516" y="14" width="46" height="215" rx="8" fill="#385B93"/>
<rect x="521" y="42.014" width="46" height="184.166" rx="8" transform="rotate(-37.5174 521 42.014)" fill="#385B93"/>
<rect x="628" y="14" width="46" height="215" rx="8" fill="#385B93"/>
<rect x="701" y="14" width="46" height="215" rx="8" fill="#385B93"/>
<rect x="701" y="60" width="46" height="158" rx="8" transform="rotate(-90 701 60)" fill="#385B93"/>
<rect x="701" y="229" width="46" height="158" rx="8" transform="rotate(-90 701 229)" fill="#385B93"/>
<rect x="813" y="102" width="46" height="127" rx="8" fill="#385B93"/>
<rect x="772" y="148" width="46" height="87" rx="8" transform="rotate(-90 772 148)" fill="#385B93"/>
<rect x="884" y="13" width="46" height="215" rx="8" fill="#385B93"/>
<rect x="910" y="57.4426" width="46" height="128.117" rx="8" transform="rotate(-81.0721 910 57.4426)" fill="#385B93"/>
<rect x="917.615" y="228.762" width="46" height="129.452" rx="8" transform="rotate(-102.065 917.615 228.762)" fill="#385B93"/>
<rect x="997" y="31" width="46" height="170" rx="8" fill="#385B93"/>
<rect width="45" height="215" rx="8" transform="matrix(-1 0 0 1 1226 14)" fill="#385B93"/>
<rect width="45.978" height="125.614" rx="8" transform="matrix(-0.152157 -0.988356 -0.987394 0.158284 1200.52 58.4426)" fill="#385B93"/>
<rect width="45.9601" height="126.975" rx="8" transform="matrix(0.205007 -0.97876 -0.977032 -0.213094 1193.06 229.762)" fill="#385B93"/>
<rect width="45" height="170" rx="8" transform="matrix(-1 0 0 1 1115 32)" fill="#385B93"/>
<mask id="path-19-inside-1_80_363" fill="white">
<rect x="73" y="14" width="158" height="215" rx="8"/>
</mask>
<rect x="73" y="14" width="158" height="215" rx="8" stroke="#385B93" stroke-width="74" mask="url(#path-19-inside-1_80_363)"/>
<rect x="138" y="173" width="46" height="83" rx="8" fill="#385B93"/>
<rect x="258" y="14" width="46" height="215" rx="8" fill="#385B93"/>
<rect x="258" y="133" width="46" height="112" rx="8" transform="rotate(-90 258 133)" fill="#385B93"/>
<rect x="393" y="133" width="46" height="119" rx="8" transform="rotate(-180 393 133)" fill="#385B93"/>
<rect x="416" y="229" width="46" height="112" rx="8" transform="rotate(-180 416 229)" fill="#385B93"/>
<rect x="1253" y="13" width="46" height="215" rx="8" fill="#385B93"/>
<rect x="1355" y="143" width="46" height="119" rx="8" transform="rotate(-180 1355 143)" fill="#385B93"/>
<rect x="1411" y="228" width="46" height="215" rx="8" transform="rotate(-180 1411 228)" fill="#385B93"/>
<rect x="13" y="2" width="46" height="215" rx="8" fill="#8BB5F7"/>
<rect x="456" y="2" width="46" height="215" rx="8" fill="#8BB5F7"/>
<rect x="529" y="2" width="46" height="215" rx="8" fill="#8BB5F7"/>
<rect x="534" y="30.014" width="46" height="184.166" rx="8" transform="rotate(-37.5174 534 30.014)" fill="#8BB5F7"/>
<rect x="641" y="2" width="46" height="215" rx="8" fill="#8BB5F7"/>
<rect x="714" y="2" width="46" height="215" rx="8" fill="#8BB5F7"/>
<rect x="714" y="48" width="46" height="158" rx="8" transform="rotate(-90 714 48)" fill="#8BB5F7"/>
<rect x="714" y="217" width="46" height="158" rx="8" transform="rotate(-90 714 217)" fill="#8BB5F7"/>
<rect x="826" y="90" width="46" height="127" rx="8" fill="#8BB5F7"/>
<rect x="785" y="136" width="46" height="87" rx="8" transform="rotate(-90 785 136)" fill="#8BB5F7"/>
<rect x="897" y="1" width="46" height="215" rx="8" fill="#8BB5F7"/>
<rect x="923" y="45.4426" width="46" height="128.117" rx="8" transform="rotate(-81.0721 923 45.4426)" fill="#8BB5F7"/>
<rect x="930.615" y="216.762" width="46" height="129.452" rx="8" transform="rotate(-102.065 930.615 216.762)" fill="#8BB5F7"/>
<rect x="1010" y="19" width="46" height="170" rx="8" fill="#8BB5F7"/>
<rect width="45" height="215" rx="8" transform="matrix(-1 0 0 1 1239 2)" fill="#8BB5F7"/>
<rect width="45.978" height="125.614" rx="8" transform="matrix(-0.152157 -0.988356 -0.987394 0.158284 1213.52 46.4426)" fill="#8BB5F7"/>
<rect width="45.9601" height="126.975" rx="8" transform="matrix(0.205007 -0.97876 -0.977032 -0.213094 1206.06 217.762)" fill="#8BB5F7"/>
<rect width="45" height="170" rx="8" transform="matrix(-1 0 0 1 1128 20)" fill="#8BB5F7"/>
<mask id="path-46-inside-2_80_363" fill="white">
<rect x="86" y="2" width="158" height="215" rx="8"/>
</mask>
<rect x="86" y="2" width="158" height="215" rx="8" stroke="#8BB5F7" stroke-width="74" mask="url(#path-46-inside-2_80_363)"/>
<rect x="151" y="161" width="46" height="83" rx="8" fill="#8BB5F7"/>
<rect x="271" y="2" width="46" height="215" rx="8" fill="#8BB5F7"/>
<rect x="271" y="121" width="46" height="112" rx="8" transform="rotate(-90 271 121)" fill="#8BB5F7"/>
<rect x="406" y="121" width="46" height="119" rx="8" transform="rotate(-180 406 121)" fill="#8BB5F7"/>
<rect x="429" y="217" width="46" height="112" rx="8" transform="rotate(-180 429 217)" fill="#8BB5F7"/>
<rect x="1266" y="1" width="46" height="215" rx="8" fill="#8BB5F7"/>
<rect x="1368" y="131" width="46" height="119" rx="8" transform="rotate(-180 1368 131)" fill="#8BB5F7"/>
<rect x="1424" y="216" width="46" height="215" rx="8" transform="rotate(-180 1424 216)" fill="#8BB5F7"/>
</svg>
